HIERARCHY
ROOT root     
{
	OFFSET 0.0000 0.0000 0.0000
	CHANNELS 6 Xposition Yposition Zposition Zrotation Yrotation Xrotation
	JOINT pelvis   
	{
		OFFSET 0.0000 0.0000 0.0000
		CHANNELS 3 Zrotation Yrotation Xrotation
		JOINT thorax   
		{
			OFFSET 0.0000 23.0750 -5.0000
			CHANNELS 3 Zrotation Yrotation Xrotation
			JOINT rclavicle
			{
				OFFSET 0.0000 28.0009 0.0000
				CHANNELS 3 Zrotation Yrotation Xrotation
				JOINT rhumerus 
				{
					OFFSET -18.5725 5.5939 0.0000
					CHANNELS 3 Zrotation Yrotation Xrotation
					JOINT rradius  
					{
						OFFSET -24.8459 0.0000 0.0000
						CHANNELS 3 Zrotation Yrotation Xrotation
						JOINT rhand    
						{
							OFFSET -24.5477 0.0000 0.0000
							CHANNELS 3 Zrotation Yrotation Xrotation
							End Site
							{
								OFFSET -8.1826 0.0000 0.0000
							}
						}
					}
				}
			}
			JOINT lclavicle
			{
				OFFSET 0.0000 28.0009 0.0000
				CHANNELS 3 Zrotation Yrotation Xrotation
				JOINT lhumerus 
				{
					OFFSET 18.5725 5.5939 0.0000
					CHANNELS 3 Zrotation Yrotation Xrotation
					JOINT lradius  
					{
						OFFSET 24.8459 0.0000 0.0000
						CHANNELS 3 Zrotation Yrotation Xrotation
						JOINT lhand    
						{
							OFFSET 24.5477 0.0000 0.0000
							CHANNELS 3 Zrotation Yrotation Xrotation
							End Site
							{
								OFFSET 8.1826 0.0000 0.0000
							}
						}
					}
				}
			}
			JOINT head     
			{
				OFFSET 0.0000 35.2030 0.0000
				CHANNELS 3 Zrotation Yrotation Xrotation
				End Site
				{
					OFFSET 0.0000 11.7343 0.0000
				}
			}
		}
		JOINT rfemur   
		{
			OFFSET -8.2817 0.0000 0.0000
			CHANNELS 3 Zrotation Yrotation Xrotation
			JOINT rtibia   
			{
				OFFSET 0.0000 -43.3627 0.0000
				CHANNELS 3 Zrotation Yrotation Xrotation
				JOINT rfoot    
				{
					OFFSET 0.0000 -38.2947 0.0000
					CHANNELS 3 Zrotation Yrotation Xrotation
					JOINT rtoes    
					{
						OFFSET 0.0000 0.0000 16.6054
						CHANNELS 3 Zrotation Yrotation Xrotation
						End Site
						{
							OFFSET 0.0000 0.0000 5.5351
						}
					}
				}
			}
		}
		JOINT lfemur   
		{
			OFFSET 8.2817 0.0000 0.0000
			CHANNELS 3 Zrotation Yrotation Xrotation
			JOINT ltibia   
			{
				OFFSET 0.0000 -43.3627 0.0000
				CHANNELS 3 Zrotation Yrotation Xrotation
				JOINT lfoot    
				{
					OFFSET 0.0000 -38.2947 0.0000
					CHANNELS 3 Zrotation Yrotation Xrotation
					JOINT ltoes    
					{
						OFFSET 0.0000 0.0000 16.6054
						CHANNELS 3 Zrotation Yrotation Xrotation
						End Site
						{
							OFFSET 0.0000 0.0000 5.5351
						}
					}
				}
			}
		}
	}
}
MOTION
Frames: 19
Frame Time: .0333333
156.11 72.924 13.621 -49.8289 -84.9708 80.4371 0 -0 0 -8.11434 6.17561 16.0189 21.0458 -12.0515 4.95411e-05 49.6585 -1.11105 21.3589 -180 75.1394 -180 -6.49145 4.36116 -0.247396 -10.7987 19.6894 5.27828e-05 -57.0912 35.0831 16.3707 1.68537e-06 -77.0996 -2.11499e-06 -7.17136 5.89014 -0.3694 9.17312 -7.99183 -20.7354 6.02123 -10.544 -11.6636 -0 -0 43.428 9.4789e-07 2.49985 -6.54694 -0.285204 -2.66586e-06 -77.7234 -7.60584 5.32 -81.8126 -0 -0 49.0448 8.19739e-06 10.9008 10.0979 1.93388 3.534e-06 -10.0348 
154.95 72.799 13.677 -47.7371 -84.8393 78.2134 0 -0 0 -8.6454 6.09509 16.207 21.2297 -11.9426 -0.000142631 49.9785 -1.26257 21.4399 -180 75.2018 -180 -6.21392 4.3424 -0.235795 -11.0653 19.3644 -2.33212e-06 -56.7019 34.4515 16.3496 4.01568e-07 -77.0915 -9.88426e-07 -7.10407 5.9057 -0.366898 9.59976 -8.12588 -20.8744 5.94487 -10.7191 -11.4717 -0 -0 44.4526 8.23882e-07 2.33846 -4.73631 -0.1932 -3.75608e-06 -79.274 -7.67298 5.33757 -81.9306 -0 -0 51.0363 -1.02824e-05 10.6006 8.81783 1.64342 -3.60998e-06 -9.37748 
153.8 72.685 13.739 -45.9135 -84.7215 76.255 0 -0 0 -9.15935 6.00516 16.3837 21.4117 -11.8219 2.07538e-05 50.3308 -1.38628 21.5242 -180 75.3811 -180 -5.94043 4.30103 -0.223297 -11.3642 19.0296 5.50653e-05 -56.3094 33.7401 16.287 -1.05414e-06 -77.0512 8.39311e-07 -7.02516 5.91341 -0.363296 9.97588 -8.22501 -20.8936 5.87854 -10.96 -11.4042 -0 -0 45.6338 2.2762e-07 2.14944 -2.70734 -0.1016 5.45192e-07 -80.7536 -7.73649 5.36284 -81.9483 -0 -0 52.8981 -2.97542e-06 10.3386 7.34224 1.33553 3.28408e-06 -8.96163 
152.67 72.581 13.806 -44.4209 -84.6049 74.6429 0 -0 0 -9.65806 5.90447 16.5346 21.5923 -11.6917 5.74581e-05 50.718 -1.48526 21.6126 -180 75.6867 -180 -5.6697 4.23886 -0.210004 -11.6869 18.693 5.30339e-05 -55.9312 32.9523 16.1735 8.33977e-07 -76.9786 -1.04882e-06 -6.93395 5.91163 -0.358497 10.2974 -8.28386 -20.7958 5.8268 -11.2478 -11.4812 -0 -0 46.9653 1.01701e-07 1.92054 -0.444808 -0.0149001 4.76162e-08 -82.0505 -7.79127 5.40072 -81.8873 -0 -0 54.6188 2.03748e-06 10.128 5.7711 1.02901 -2.03583e-07 -8.78525 
151.57 72.489 13.878 -43.2563 -84.4939 73.3843 0 -0 0 -10.1426 5.79012 16.6471 21.7691 -11.5546 6.87624e-06 51.1366 -1.56464 21.703 -180 76.1049 -180 -5.40128 4.1602 -0.196304 -12.0244 18.3567 1.07924e-05 -55.5733 32.092 16.0015 -1.04042e-06 -76.863 8.25558e-07 -6.82929 5.90005 -0.352395 10.5626 -8.29889 -20.5916 5.79345 -11.5638 -11.716 -0 -0 48.4362 2.32716e-07 1.6337 2.03775 0.0581011 -1.23782e-07 -82.9992 -7.83611 5.45432 -81.7739 -0 -0 56.197 -1.06471e-06 9.97491 4.19547 0.737198 1.19599e-07 -8.83045 
150.5 72.41 13.952 -42.4036 -84.3969 72.4677 0 -0 0 -10.6146 5.65851 16.7167 21.9442 -11.41 -2.21538e-05 51.5866 -1.62991 21.7914 -180 76.6372 -180 -5.13765 4.06959 -0.182696 -12.3689 18.0229 1.7032e-05 -55.2473 31.1655 15.7651 0 -76.6984 0 -6.70972 5.87899 -0.344893 10.7716 -8.2695 -20.2966 5.78385 -11.8865 -12.1159 -0 -0 50.0312 -4.60431e-07 1.26399 4.68854 0.103301 -2.71124e-08 -83.3858 -7.87145 5.52593 -81.6342 -0 -0 57.6393 8.33203e-06 9.87897 2.68974 0.468193 -3.45367e-07 -9.0591 
149.45 72.343 14.028 -41.8084 -84.323 71.8395 0 -0 0 -11.0739 5.50663 16.7456 22.1184 -11.2591 -1.66728e-05 52.0647 -1.68861 21.8752 -180 77.2683 -180 -4.88333 3.97305 -0.1695 -12.7122 17.6915 6.03811e-07 -54.9596 30.1787 15.4586 7.98878e-07 -76.4772 -1.01381e-06 -6.57237 5.8512 -0.336298 10.9264 -8.19682 -19.9302 5.80313 -12.2003 -12.6806 -0 -0 51.7311 1.02153e-06 0.781399 7.41413 0.100799 -2.32357e-07 -82.9889 -7.89912 5.61616 -81.486 -0 -0 58.9548 2.46927e-06 9.83382 1.30462 0.226098 -5.38374e-07 -9.41729 
148.44 72.29 14.105 -41.4234 -84.2497 71.4535 0 -0 0 -11.5177 5.33053 16.7401 22.2931 -11.1036 -8.00581e-05 52.5652 -1.74445 21.9478 -180 78.0012 -180 -4.64422 3.87695 -0.157299 -13.046 17.3636 1.26932e-05 -54.7178 29.129 15.0838 7.80654e-07 -76.1947 -9.95665e-07 -6.41313 5.81923 -0.326304 11.0305 -8.08331 -19.5141 5.85554 -12.4922 -13.4027 -0 -0 53.5204 -1.78352e-07 0.153896 10.0813 0.0269 8.0237e-08 -81.6185 -7.92181 5.72524 -81.3415 -0 -0 60.1571 9.9353e-08 9.82815 0.0670013 0.0116005 4.12091e-08 -9.84615 
147.46 72.25 14.182 -41.219 -84.1847 71.2746 0 -0 0 -11.9429 5.12814 16.7117 22.4671 -10.9425 7.87068e-05 53.0839 -1.80528 22.0044 -180 78.8132 -180 -4.4278 3.78707 -0.146498 -13.3748 17.0217 4.94703e-05 -54.5203 28.0412 14.6224 1.07532e-06 -75.8731 -1.37948e-06 -6.22811 5.78823 -0.315209 11.0854 -7.9333 -19.0666 5.94574 -12.7547 -14.2717 -0 -0 55.3858 -2.58914e-06 -0.648498 12.5295 -0.1407 1.00579e-06 -79.1681 -7.94183 5.85241 -81.2056 -0 -0 61.2592 -3.8932e-07 9.8479 -1.0197 -0.176999 -5.19615e-07 -10.2957 
146.51 72.223 14.257 -41.1205 -84.1213 71.2205 0 -0 0 -12.3452 4.89677 16.6765 22.6438 -10.7794 -2.4252e-05 53.6129 -1.87018 22.0436 -180 79.699 -180 -4.24263 3.70949 -0.137501 -13.6849 16.6784 -2.10514e-05 -54.3702 26.8994 14.0939 1.04349e-06 -75.4959 -1.34778e-06 -6.00764 5.76136 -0.302593 11.0939 -7.74932 -18.6031 6.0741 -12.9876 -15.2727 -0 -0 57.3196 8.42608e-06 -1.64584 14.5896 -0.414699 5.03504e-06 -75.6561 -7.96087 5.99639 -81.075 -0 -0 62.2747 -2.66945e-06 9.87831 -1.97059 -0.343104 -8.37985e-07 -10.733 
145.6 72.209 14.331 -41.1013 -84.0688 71.2497 0 -0 0 -12.7203 4.63616 16.6486 22.8224 -10.6137 1.8184e-05 54.1477 -1.9428 22.0614 -180 80.6537 -180 -4.09567 3.64896 -0.130497 -13.983 16.315 3.26965e-05 -54.265 25.7285 13.4825 -1.31466e-06 -75.0822 1.01024e-06 -5.74486 5.74356 -0.288403 11.0572 -7.53599 -18.1337 6.24237 -13.1936 -16.3913 -0 -0 59.3141 -7.37224e-06 -2.84331 16.1132 -0.789691 4.72747e-06 -71.2378 -7.97985 6.15605 -80.9423 -0 -0 63.2106 4.88443e-07 9.90552 -2.81401 -0.491199 -2.49615e-07 -11.1435 
144.7 72.207 14.403 -41.1502 -83.9999 71.3511 0 -0 0 -13.0616 4.34646 16.6405 23.0025 -10.4451 -2.96751e-05 54.68 -2.02318 22.0585 -180 81.6705 -180 -3.99371 3.60931 -0.1259 -14.2699 15.9259 2.29071e-05 -54.2003 24.5375 12.7874 9.7681e-07 -74.6358 -1.2814e-06 -5.42796 5.73873 -0.272299 10.9751 -7.29544 -17.6624 6.4487 -13.3749 -17.6114 -0 -0 61.3628 1.23422e-05 -4.22446 16.9852 -1.23609 -6.75895e-06 -66.1772 -7.9982 6.33119 -80.7948 -0 -0 64.0777 -1.5523e-06 9.91876 -3.58524 -0.6265 1.41927e-06 -11.5291 
143.83 72.216 14.473 -41.2785 -83.9292 71.5216 0 -0 0 -13.3652 4.02879 16.6623 23.1834 -10.2767 -5.60166e-06 55.2011 -2.10662 22.0349 -180 82.7339 -180 -3.9413 3.59275 -0.123701 -14.5391 15.5202 1.07605e-05 -54.1759 23.3178 12.0215 1.33365e-06 -74.1624 -1.76464e-06 -5.04364 5.74776 -0.253394 10.8492 -7.02819 -17.1887 6.69131 -13.5344 -18.9219 -0 -0 63.4591 -2.6275e-06 -5.74895 17.1411 -1.6996 -5.30559e-06 -60.7725 -8.0144 6.5222 -80.6185 -0 -0 64.8788 -3.0711e-08 9.91043 -4.3206 -0.75409 -1.52424e-06 -11.9036 
142.98 72.236 14.542 -41.4804 -83.8468 71.7511 0 -0 0 -13.6271 3.68486 16.7181 23.3664 -10.1094 4.5806e-05 55.703 -2.19095 21.9958 -180 83.8529 -180 -3.94027 3.60032 -0.123899 -14.7921 15.099 -5.43534e-05 -54.186 22.0745 11.1888 0 -73.6646 0 -4.57832 5.77087 -0.230897 10.6793 -6.73444 -16.7079 6.96723 -13.668 -20.3101 -0 -0 65.5912 2.943e-05 -7.35562 16.5643 -2.10771 -1.79909e-07 -55.2701 -8.02674 6.73045 -80.4055 -0 -0 65.6182 -1.7117e-06 9.87714 -5.05106 -0.878297 1.25579e-06 -12.284 
142.15 72.265 14.609 -41.8037 -83.7594 72.0818 0 -0 0 -13.8469 3.31847 16.8069 23.5475 -9.94055 6.73179e-05 56.1796 -2.27858 21.9388 -180 85.007 -180 -3.98925 3.63141 -0.126503 -15.0348 14.644 -3.33573e-05 -54.2284 20.8375 10.2747 0 -73.1652 0 -4.02133 5.80663 -0.204004 10.4668 -6.41434 -16.208 7.27253 -13.7696 -21.7686 -0 -0 67.7451 -5.48704e-05 -8.96915 15.2831 -2.38223 -8.05349e-06 -49.8125 -8.03217 6.95822 -80.1451 -0 -0 66.2941 3.72614e-06 9.81864 -5.80034 -1.00198 4.40582e-07 -12.6909 
141.34 72.303 14.675 -42.2589 -83.6739 72.5254 0 -0 0 -14.0223 2.93124 16.9284 23.7278 -9.77539 -7.81912e-05 56.6272 -2.36215 21.8719 -180 86.2092 -180 -4.08504 3.68368 -0.131397 -15.253 14.1863 -2.10861e-06 -54.3035 19.5722 9.31383 8.47863e-07 -72.6477 -1.15321e-06 -3.35876 5.84936 -0.171597 10.2153 -6.06585 -15.6812 7.60188 -13.8332 -23.2913 -0 -0 69.9065 2.26191e-05 -10.5095 13.3604 -2.45474 -9.07015e-06 -44.4294 -8.02913 7.20737 -79.8347 -0 -0 66.9075 -1.1344e-05 9.73756 -6.58094 -1.12672 -6.45059e-06 -13.1411 
140.54 72.348 14.741 -42.8874 -83.5685 73.1264 0 -0 0 -14.1569 2.52652 17.0733 23.9038 -9.60972 -3.65456e-05 57.0405 -2.44809 21.7939 -180 87.44 -180 -4.22169 3.75422 -0.138399 -15.4549 13.705 4.73215e-06 -54.4041 18.3138 8.28955 0 -72.1364 0 -2.58607 5.89326 -0.133104 9.93036 -5.68878 -15.1163 7.94992 -13.8538 -24.8747 -0 -0 72.052 -5.81516e-06 -11.9044 10.9006 -2.28293 -1.44184e-05 -39.0946 -8.01585 7.47928 -79.4753 -0 -0 67.4586 4.46275e-06 9.63817 -7.3947 -1.2521 1.8777e-06 -13.6409 
139.77 72.399 14.807 -43.6839 -83.4681 73.8769 0 -0 0 -14.253 2.10552 17.2376 24.0735 -9.45021 6.77714e-05 57.4156 -2.52988 21.7101 -180 88.7307 -180 -4.39269 3.83822 -0.147296 -15.6253 13.2361 -5.90327e-05 -54.5318 17.0208 7.23901 0 -71.6174 0 -1.69792 5.92808 -0.0879013 9.62031 -5.28189 -14.5094 8.31037 -13.8256 -26.5169 -0 -0 74.161 2.96169e-05 -13.0954 8.03843 -1.8632 1.0641e-05 -33.7856 -7.99209 7.77474 -79.0733 -0 -0 67.9505 7.04608e-06 9.52558 -8.23395 -1.37674 -6.50502e-06 -14.1905 
139.01 72.456 14.873 -44.6301 -83.3633 74.7662 0 -0 0 -14.3128 1.67105 17.4114 24.2378 -9.29234 4.35145e-05 57.7508 -2.61683 21.6141 -179.988 89.8181 -179.988 -4.59026 3.93086 -0.157601 -15.768 12.7564 -7.14808e-06 -54.6827 15.7303 6.15232 0 -71.1039 0 -0.701595 5.94541 -0.0363995 9.29562 -4.84754 -13.8565 8.67894 -13.7462 -28.2171 -0 -0 76.2065 -1.53988e-05 -14.049 4.9435 -1.23529 -2.67823e-06 -28.5854 -7.95785 8.09403 -78.6332 -0 -0 68.3858 -1.59707e-05 9.40341 -9.08557 -1.49802 -4.13744e-06 -14.7739 
